<?xml version="1.0" encoding="utf-8"?>
<!-- Generator: Adobe Illustrator 27.5.0, SVG Export Plug-In . SVG Version: 6.00 Build 0)  -->
<svg version="1.1" id="Capa_1" xmlns="http://www.w3.org/2000/svg" xmlns:xlink="http://www.w3.org/1999/xlink" x="0px" y="0px"
	 viewBox="0 0 2122 2122" style="enable-background:new 0 0 2122 2122;" xml:space="preserve">
<path style="fill:#1B0D1B;" d="M1777.705,1111.32l-99.968-28.53l-14.519-42.467l-267.402-76.315
	c10.561-21.613,20.606-43.393,29.951-65.36c28.171-66.212,52.248-138.129,52.614-210.85
	c0.711-141.924-86.878-236.414-201.428-280.531C1153.246,289.365,925.1,274.326,777.538,371.146
	c-78.249,51.337-131.252,133.427-134.406,228.36c-3.094,93.106,27.405,186.002,64.806,269.987
	c7.895,17.728,16.265,35.237,25.025,52.55l-389.677,138.548l-224.358,656.204l152.988-41.614l-38.503,112.615l530.939-144.424
	l362.012,219.469l343.973-238.285l532.058,143.936L1777.705,1111.32z"/>
<path style="fill:#E84531;" d="M1677.738,1082.79l-14.519-42.467l-267.402-76.315l-131.336-37.482
	c16.919-32.531,32.605-65.508,46.802-98.875c28.168-66.212,52.249-138.134,52.614-210.85
	c0.443-88.561-33.527-158.625-86.943-209.534C1153.246,289.365,925.1,274.326,777.538,371.146
	c-78.249,51.337-131.252,133.427-134.406,228.36c-3.094,93.106,27.405,186.002,64.806,269.987
	c7.895,17.728,16.265,35.237,25.025,52.55l-389.677,138.548l-224.358,656.204l152.988-41.614l377.95-102.805l362.011,219.469
	l343.975-238.29l532.055,143.942L1677.738,1082.79z"/>
<path style="fill:#EADADA;" d="M1641.673,1063.096l-390.505-111.449c4.536-8.347,9.022-16.712,13.395-25.12
	c16.919-32.531,32.606-65.508,46.802-98.875c28.168-66.212,52.249-138.134,52.614-210.85
	c0.443-88.561-33.527-158.625-86.943-209.534c-123.706-117.902-351.852-132.941-499.414-36.121
	c-78.248,51.337-131.252,133.427-134.406,228.36c-3.094,93.106,27.405,186.002,64.806,269.987
	c7.895,17.728,16.265,35.237,25.024,52.55c4.227,8.357,8.545,16.668,12.953,24.932l-380.642,135.336l-203.042,593.865
	l491.853-133.792l356.784,216.301l252.358-174.82l87.41-60.55l493.997,133.641L1641.673,1063.096z"/>
<path style="fill:#D7B4B4;" d="M1245.016,1061.333l-16.064-70.25c7.575-13.061,14.945-26.212,22.133-39.436
	c4.536-8.347,9.022-16.712,13.395-25.12c16.919-32.531,32.605-65.508,46.802-98.875c28.168-66.212,52.249-138.134,52.614-210.85
	c0.443-88.561-33.527-158.625-86.943-209.534C1153.246,289.365,925.1,274.326,777.538,371.146
	c-78.249,51.337-131.252,133.427-134.406,228.36c-3.094,93.106,27.405,186.002,64.806,269.987
	c7.895,17.728,16.265,35.237,25.025,52.55c4.227,8.357,8.545,16.668,12.953,24.932c7.145,13.396,14.563,26.646,22.133,39.809
	l-28.412,138.499l-24.409,119.045h-0.01l-61.133,298.056l356.784,216.296l252.358-174.815l87.41-60.55l0.001,0l-58.833-257.32
	L1245.016,1061.333z"/>
<path style="fill:#4A4999;" d="M1276.952,407.267C1153.246,289.365,925.1,274.326,777.538,371.146
	c-78.249,51.337-131.252,133.427-134.406,228.36c-3.094,93.106,27.405,186.002,64.806,269.987
	c7.895,17.728,16.265,35.237,25.025,52.55c4.227,8.357,8.545,16.668,12.953,24.932c7.145,13.396,14.563,26.646,22.133,39.809
	c15.916,27.674,32.653,54.877,50.046,81.603c6.63,10.189,40.493,55.433,77.135,104.044
	c49.339,65.456,103.715,137.018,103.437,137.34c38.909-45.054,76.893-92.164,113.003-140.999
	c42.176-57.036,81.762-116.442,117.283-177.689c7.575-13.061,14.945-26.212,22.133-39.436c4.536-8.347,9.022-16.712,13.395-25.12
	c16.919-32.531,32.605-65.508,46.802-98.875c28.168-66.212,52.249-138.134,52.614-210.85
	C1364.339,528.241,1330.369,458.177,1276.952,407.267z"/>
<path style="fill:#13757B;" d="M1673.958,1273.083c-5.861-12.063-19.186-18.319-28.563-27.912
	c-27.099-27.737-20.589-81.958-55.25-99.367c-13.698-6.884-30.192-5.417-44.49-10.947c-14.1-5.452-25.233-17.379-39.815-21.374
	c-15.013-4.117-30.802,0.872-46.295,2.495c-49.586,5.184-95.203-24.078-141.596-42.338c-22.436-8.838-48.721-14.042-72.935-12.307
	c-25.832,1.846-49.299,11.59-63.223,33.247c-17.035,26.514-19.617,69.096-50.477,75.479c-6.611,1.367-13.159,0.501-19.647-1.286
	c-36.11,48.835-74.094,95.945-113.003,140.999c0.278-0.322-54.099-71.884-103.437-137.34c-15.577,7.389-32.132,13.639-46.938,6.315
	c-13.345-6.588-20.885-22.875-35.298-26.597c-11.605-2.986-23.771,3.328-35.662,1.895c-15.829-1.915-26.472-16.278-37.696-28.76
	c-9.12-10.173-18.616-19.089-31.596-19.04c-9.554,0.049-19.924,5.228-28.092,0.287c-8.877-5.374-8.366-18.597-14.69-26.816
	c-12.95-16.818-38.713-2.275-57.439,7.728c-54.003,28.867-132.18,12.156-169.461,60.74c-16.958,22.1-20.1,52.745-38.175,73.944
	c-8.758,10.271-20.492,17.622-29.535,27.649c-9.043,10.026-15.269,24.648-9.8,36.989c26.275,11.849,57.825,11.299,83.666-1.457
	c4.685-2.304,9.762-5.072,14.826-3.825c5.795,1.432,9.055,7.499,11.018,13.135c6.96,20.029,6.343,42.602-1.72,62.222
	c-6.765,16.478-16.387,39.844-0.648,48.161c6.117,3.24,13.708,1.954,20.149,4.468c15.169,5.92,15.298,27.206,11.625,43.074
	c-3.671,15.859-7.157,35.752,5.773,45.637c10.036,7.669,24.568,4.351,35.868-1.267c24.529-12.175,44.224-33.764,54.112-59.303
	c16.918-43.742,5.381-95.742,27.364-137.179c8.906-16.79,26.187-31.815,44.94-28.76c5.941,0.974,11.803,3.722,17.745,2.719
	c13.853-2.324,19.469-22.553,29.651-30.061h0.01c2.916-2.154,6.204-3.26,10.173-2.602c15.63,2.592,13.912,29.198,28.258,35.947
	c15.944,7.479,33.539-16.585,49.907-10.085c7.108,2.816,10.899,10.533,13.001,17.881c10.506,36.701-5.255,75.016-13.325,112.326
	c-8.081,37.301-3.83,84.507,30.153,101.871c12.019,6.143,25.854,7.342,38.923,10.699c53.973,13.875,94.17,61.417,131.198,99.975
	c15.091,15.717,21.688,27.63,36.634,12.551c21.717-21.939,35.308-48.595,60.463-69.272c26.758-21.988,59.581-47.328,59.679-85.457
	c0.087-40.502-38.726-81.013-19.45-116.624c4.31-7.956,11.162-14.349,15.082-22.495c14.758-30.714-15.985-74.558,8.246-98.514
	c25.756,7.484,46.453,16.288,58.058,40.473c3.192,6.651,5.883,14.012,11.783,18.441c13.177,9.905,31.617-0.882,43.771-12.029
	c4.273-3.907,9.016-8.019,14.022-11.42c9.26-6.28,19.423-10.139,29.201-5.812c15.778,6.992,17.174,30.114,31.116,40.277
	c22.818,16.624,54.692-13.335,81.839-5.578c18.421,5.276,27.364,25.462,35.123,42.977c21.532,48.692,51.656,93.564,88.565,131.936
	c4.792,4.979,10.063,10.066,16.799,11.596c7.167,1.632,14.522-1.072,21.367-3.732c12.94-5.018,26.557-10.543,34.864-21.661
	c5.647-7.537,8.209-16.877,10.665-25.968c10.534-39.118,21.07-78.246,31.606-117.373
	C1676.453,1299.626,1679.861,1285.22,1673.958,1273.083z"/>
<path style="fill:#383884;" d="M1173.832,552.538c-33.141-63.486-99.549-106.849-176.123-106.849
	c-109.683,0-198.597,88.911-198.597,198.596c0,52.426,20.349,100.076,53.536,135.571c33.142,63.483,99.548,106.845,176.12,106.845
	c109.68,0,198.596-88.916,198.596-198.596C1227.365,635.681,1207.017,588.034,1173.832,552.538z"/>
<path style="fill:#064347;" d="M848.291,1178.745c-13.345-6.588-20.885-22.875-35.298-26.597
	c-11.605-2.986-23.771,3.328-35.662,1.895c-15.829-1.915-26.472-16.278-37.696-28.76l-24.409,119.045
	c2.916-2.154,6.204-3.26,10.173-2.602c15.63,2.592,13.912,29.198,28.258,35.947c15.944,7.479,33.539-16.585,49.907-10.085
	c7.108,2.816,10.899,10.533,13.001,17.881c10.506,36.701-5.255,75.016-13.325,112.326c-8.081,37.301-3.83,84.507,30.153,101.871
	c12.019,6.143,25.854,7.342,38.923,10.699c53.973,13.875,94.17,61.417,131.198,99.975c15.091,15.717,21.688,27.63,36.634,12.551
	c21.717-21.939,35.308-48.595,60.463-69.272c26.758-21.988,59.581-47.328,59.679-85.457c0.087-40.502-38.726-81.013-19.45-116.624
	c4.31-7.956,11.162-14.349,15.082-22.495c14.758-30.714-15.985-74.558,8.246-98.514c25.756,7.484,46.453,16.288,58.058,40.473
	c3.192,6.651,5.883,14.012,11.783,18.441c13.177,9.905,31.617-0.882,43.771-12.029c4.273-3.907,9.016-8.019,14.022-11.42
	l-46.787-204.662c-25.832,1.846-49.299,11.59-63.223,33.247c-17.035,26.514-19.617,69.096-50.477,75.479
	c-6.611,1.367-13.159,0.501-19.647-1.286c-36.11,48.835-74.094,95.945-113.003,140.999c0.278-0.322-54.099-71.884-103.437-137.34
	C879.652,1179.82,863.097,1186.069,848.291,1178.745z"/>
<path style="fill:#EADADA;" d="M997.709,842.882c109.683,0,198.599-88.915,198.599-198.596c0-33.109-8.147-64.298-22.476-91.747
	c-33.141-63.486-99.549-106.849-176.123-106.849c-109.683,0-198.597,88.911-198.597,198.596c0,52.426,20.349,100.076,53.536,135.571
	C888.891,818.62,940.453,842.882,997.709,842.882z"/>
</svg>
